<svg width="68" height="93" viewBox="0 0 68 93" fill="none" xmlns="http://www.w3.org/2000/svg">
<path opacity="0.2" d="M2.32395 91.0001V92.0001H3.32395H65.5399H66.5399V91.0001V75.9149V74.9149H65.5399H30.7326L42.3203 63.5597C48.3238 58.0961 52.9992 53.3943 56.3315 49.4588L56.3338 49.456C59.667 45.4907 62.0244 41.8341 63.3568 38.49C64.7088 35.1675 65.3893 31.7881 65.3893 28.358C65.3893 23.1485 64.047 18.4927 61.3444 14.4241C58.6485 10.3653 54.8791 7.21145 50.0734 4.95444C45.2825 2.66261 39.69 1.53418 33.324 1.53418C27.1168 1.53418 21.5915 2.70948 16.7732 5.08928C11.9547 7.46913 8.18676 10.8472 5.49767 15.2206C2.80119 19.6061 1.47168 24.7509 1.47168 30.6166V31.6166H2.47168H19.9859H20.9859V30.6166C20.9859 27.9617 21.5001 25.7304 22.4869 23.8867C23.4753 22.0399 24.8697 20.6341 26.6846 19.6488C28.5024 18.662 30.6622 18.1507 33.1961 18.1507C35.6165 18.1507 37.7451 18.6338 39.6047 19.5766L39.6046 19.5767L39.6148 19.5817C41.4675 20.495 42.916 21.8032 43.9802 23.5164L43.9838 23.5222C45.0317 25.1834 45.5768 27.193 45.5768 29.5938C45.5768 31.7537 45.1381 33.7513 44.2672 35.5997C43.379 37.456 42.0601 39.3809 40.2896 41.3727L40.2896 41.3726L40.2844 41.3785C38.5197 43.3953 36.3269 45.6735 33.7018 48.2142L2.64454 76.9709L2.32395 77.2677V77.7046V91.0001Z" stroke="#1B2847" stroke-width="2"/>
</svg>
