<svg width="71" height="95" viewBox="0 0 71 95" fill="none" xmlns="http://www.w3.org/2000/svg">
<path opacity="0.2" d="M17.9206 89.8246L17.9269 89.8273C23.0453 92.0794 28.8537 93.1933 35.3325 93.1933C41.9797 93.1933 47.9158 92.0659 53.1202 89.7853C58.3119 87.5103 62.4223 84.3699 65.4097 80.3478C68.4404 76.306 69.9406 71.6767 69.912 66.4968C69.9404 60.846 68.1863 56.0771 64.6161 52.2653C61.6516 49.051 57.5922 46.9161 52.5107 45.8059C56.201 44.6661 59.3212 42.7464 61.8443 40.0352C65.1021 36.5654 66.7018 32.2365 66.6734 27.1226C66.7019 22.3266 65.3952 17.9816 62.751 14.1178C60.141 10.2339 56.4892 7.16998 51.8337 4.91541C47.1562 2.65024 41.732 1.53418 35.5882 1.53418C29.4987 1.53418 23.998 2.65106 19.1053 4.90675C14.2486 7.13051 10.3579 10.2324 7.46356 14.2195C4.55132 18.2312 3.05746 22.8651 2.96898 28.0854L2.95175 29.1024H3.96884H21.6535H22.6158L22.6528 28.1408C22.7307 26.1142 23.3361 24.3836 24.453 22.9113C25.5883 21.4148 27.1049 20.2535 29.033 19.4347L29.033 19.4348L29.0436 19.4302C30.9783 18.5821 33.1267 18.1507 35.5029 18.1507C37.8474 18.1507 39.8459 18.5948 41.5275 19.4486L41.533 19.4513C43.252 20.3108 44.5548 21.4932 45.4732 22.9982L45.4784 23.0068L45.4837 23.0152C46.4205 24.4836 46.9035 26.2098 46.9035 28.2302C46.9035 30.3471 46.3584 32.1611 45.2924 33.7109C44.2167 35.2464 42.6927 36.4724 40.6769 37.3742L40.6724 37.3762C38.6937 38.2732 36.3815 38.7359 33.7132 38.7359H25.574H24.574V39.7359V53.287V54.287H25.574H33.7132C36.9083 54.287 39.6087 54.7832 41.842 55.7403L41.8459 55.7419C44.1199 56.705 45.8048 58.0181 46.9576 59.6577L46.9628 59.665L46.968 59.6722C48.1432 61.2816 48.7359 63.1323 48.7359 65.2615C48.7359 67.3747 48.1786 69.2038 47.0818 70.7853C45.9728 72.3843 44.4291 73.6525 42.4142 74.5804C40.4081 75.5043 38.0693 75.9802 35.3751 75.9802C32.7856 75.9802 30.4877 75.5579 28.4658 74.7332C26.4434 73.9083 24.8555 72.7673 23.6681 71.3245C22.5262 69.8749 21.9027 68.202 21.7998 66.2735L21.7493 65.3268H20.8012H2.22168H1.20478L1.22182 66.3436C1.3103 71.6228 2.83373 76.3141 5.80314 80.3823L5.80806 80.3889C8.7917 84.4065 12.8412 87.5476 17.9206 89.8246Z" stroke="#1B2847" stroke-width="2"/>
</svg>
